# xmcd
#
# Track frame offsets:
#	150
#	52279
#	72609
#	109590
#	151412
#	169430
#	202759
#
# Disc length: 3157 seconds
#
# Revision: 1
# Processed by: cddbd v1.5.2PL0 Copyright (c) Steve Scherf et al.
# Submitted via: audiograbber 1.83.01
#
DISCID=640c5307
DTITLE=Grateful Dead - 80-08-31 Capital Centre, Landover MD
DYEAR=1900
DGENRE=
TTITLE0=Drums
TTITLE1=Space
TTITLE2=The Other One
TTITLE3=Stella Blue
TTITLE4=I Need A Miracle
TTITLE5=Good Lovin'
TTITLE6=Brokedown Palace
EXTD=
EXTT0=
EXTT1=
EXTT2=
EXTT3=
EXTT4=
EXTT5=
EXTT6=
PLAYORDER=
